:SAMPLES-PER-SECOND 30
:FULLY-SPECIFIED
:DEGREES
77
root  54.2282 38.4923 -8.50252 6.02906 -84.8903 -1.84181
RightUpLeg  -25.1871 0.904049 -3.94202
RightLeg  49.6986 1.92427 2.07901
RightFoot  -3.33821 -0.606977 8.39949
RightToes  -1.16417e-010 0 -3.6325e-017
Spine  -12.1883 0.280323 3.78485
Spine1  12.4613 2.39496 -11.4851
HEad  -11.0422 -0.325895 -4.42281
LeftShoulder1  -0.57168 4.98104 -32.5524
LeftArm  -2.39642 -6.2054 -43.3531
LeftForeArm  33.0492 -11.3964 -7.83048
LeftHand  -0.161345 10.1814 -2.44604
RightShoulder  -0.941405 -6.06418 30.186
RightArm  21.1046 -2.55561 47.5624
RightForeArm  9.1331 22.1651 4.44187
RightHand  -0.0655912 4.02516 -1.08639
LeftUpLeg  -11.9096 6.7411 -2.65304
LeftLeg  21.2904 1.09091 0.0662033
LeftFoot  -13.9077 0.197248 5.09812
LeftToes  1.47335e-010 -1.29615e-010 3.08757e-011
78
root  53.552 38.4229 -8.27 -1.53662 -85.3548 4.36258
RightUpLeg  -25.7168 0.917649 -3.87801
RightLeg  43.1498 3.01748 2.73738
RightFoot  -4.67135 -0.592862 9.58943
RightToes  -1.16417e-010 0 -3.6325e-017
Spine  -9.08746 -0.180824 2.24802
Spine1  11.1734 1.83243 -10.2448
HEad  -10.1693 -0.668991 -3.62865
LeftShoulder1  -0.568857 4.97534 -32.5066
LeftArm  0.83864 -8.64037 -44.5812
LeftForeArm  30.1382 -13.768 -7.35863
LeftHand  -0.189827 9.96228 -3.27425
RightShoulder  -0.888587 -5.96163 29.563
RightArm  21.4118 -2.00268 48.4217
RightForeArm  8.74394 22.6819 4.48273
RightHand  -0.0658608 5.20574 -1.02949
LeftUpLeg  -8.95763 6.66041 -3.21094
LeftLeg  20.9775 1.74079 0.273294
LeftFoot  -15.1453 0.253221 4.8716
LeftToes  1.47335e-010 -1.29615e-010 3.08757e-011
79
root  52.8327 38.4093 -8.03277 -8.80033 -85.4589 10.2881
RightUpLeg  -25.2906 0.26025 -3.48111
RightLeg  34.6365 3.69874 2.52686
RightFoot  -4.20995 -0.548052 8.31665
RightToes  -1.16417e-010 0 -3.6325e-017
Spine  -6.88829 -0.478708 1.15173
Spine1  10.9834 1.46971 -8.98801
HEad  -9.53346 -0.418039 -3.59944
LeftShoulder1  -0.536388 4.91022 -31.994
LeftArm  4.82787 -10.9028 -46.1163
LeftForeArm  26.4988 -16.1812 -6.59155
LeftHand  -0.150567 9.27481 -2.81728
RightShoulder  -0.857514 -5.88364 29.4302
RightArm  21.3599 -1.59593 48.9074
RightForeArm  9.24342 22.887 4.4748
RightHand  -0.0650616 4.4566 -1.05021
LeftUpLeg  -5.64846 6.59088 -3.72873
LeftLeg  19.8895 2.19595 0.356686
LeftFoot  -15.8187 0.292443 5.04332
LeftToes  1.47335e-010 -1.29615e-010 3.08757e-011
80
root  51.9762 38.3994 -7.78871 -11.4465 -85.1462 12.4458
RightUpLeg  -24.4526 -0.959133 -2.76707
RightLeg  24.4555 3.43278 1.49792
RightFoot  -4.14336 -0.560147 8.41771
RightToes  -1.16417e-010 0 -3.6325e-017
Spine  -5.71645 -0.727937 0.722944
Spine1  10.2196 1.10379 -8.02827
HEad  -8.75117 -0.518825 -3.94355
LeftShoulder1  -0.50701 4.84368 -31.6966
LeftArm  9.4916 -11.931 -47.0521
LeftForeArm  22.7899 -18.7437 -5.57963
LeftHand  -0.112075 8.9879 -1.94356
RightShoulder  -0.859368 -5.8875 29.4502
RightArm  21.6532 -2.42888 48.7619
RightForeArm  9.07853 23.0423 4.5026
RightHand  -0.0798151 4.95381 -1.19719
LeftUpLeg  -3.0485 6.33961 -4.10666
LeftLeg  18.7315 2.35183 0.40916
LeftFoot  -16.4882 0.336741 5.28079
LeftToes  1.47335e-010 -1.29615e-010 3.08757e-011
81
root  51.1268 38.3227 -7.5581 -16.8725 -85.2147 17.675
RightUpLeg  -23.7898 -1.84871 -2.09065
RightLeg  14.5095 3.03056 0.676823
RightFoot  -4.23338 -0.57696 8.7143
RightToes  -1.16417e-010 0 -3.6325e-017
Spine  -5.39586 -0.809695 0.620061
Spine1  10.5744 1.05641 -7.55119
HEad  -8.59279 -0.740177 -3.76432
LeftShoulder1  -0.497785 4.82349 -31.5745
LeftArm  12.8977 -12.9286 -47.7077
LeftForeArm  18.9963 -21.2 -4.54305
LeftHand  -0.0905628 9.41712 -1.06642
RightShoulder  -0.835677 -5.82661 29.3643
RightArm  22.1254 -2.58079 49.2629
RightForeArm  8.81425 21.9373 4.48244
RightHand  -0.0663369 4.90657 -1.04786
LeftUpLeg  -0.850718 6.13972 -4.70463
LeftLeg  17.7498 2.80229 0.50399
LeftFoot  -17.3352 0.384332 5.3509
LeftToes  1.47335e-010 -1.29615e-010 3.08757e-011
82
root  50.2104 38.2126 -7.33324 -23.9195 -85.2454 24.7008
RightUpLeg  -23.0171 -3.13848 -1.44444
RightLeg  5.35365 2.24115 0.395177
RightFoot  -4.17895 -0.56426 8.5485
RightToes  -1.16417e-010 0 -3.6325e-017
Spine  -4.5295 -0.754568 0.589431
Spine1  9.85182 1.07992 -7.16821
HEad  -8.22787 -0.974974 -3.95769
LeftShoulder1  -0.529742 4.90214 -31.7388
LeftArm  14.2126 -13.2 -47.967
LeftForeArm  17.711 -22.9515 -4.15187
LeftHand  -0.0545611 9.34711 -0.0993643
RightShoulder  -0.82702 -5.80421 29.3047
RightArm  22.6816 -3.44637 49.3493
RightForeArm  8.99018 20.5926 4.64475
RightHand  -0.0693685 4.96207 -1.07907
LeftUpLeg  1.34923 6.0296 -5.36447
LeftLeg  16.6345 3.19687 0.421557
LeftFoot  -18.2491 0.421275 5.1545
LeftToes  1.47335e-010 -1.29615e-010 3.08757e-011
83
root  49.2121 38.0488 -7.12676 -24.839 -84.9963 25.6705
RightUpLeg  -22.4466 -3.1489 -1.18003
RightLeg  -1.36571 -0.529219 0.79741
RightFoot  -4.3489 -0.597951 9.28964
RightToes  -1.16417e-010 0 -3.6325e-017
Spine  -3.40692 -0.690715 1.2886
Spine1  8.46195 1.16003 -7.40617
HEad  -7.9472 -1.31488 -3.95075
LeftShoulder1  -0.50627 4.84446 -31.6206
LeftArm  14.3968 -12.7661 -48.203
LeftForeArm  17.8079 -24.0995 -4.19778
LeftHand  -0.0482249 8.60827 -0.0445593
RightShoulder  -0.965712 -6.1256 30.274
RightArm  23.3856 -4.18742 48.3468
RightForeArm  9.47188 18.8161 5.14374
RightHand  -0.0740086 4.77763 -1.14632
LeftUpLeg  3.22934 5.99678 -5.6164
LeftLeg  16.3309 2.91946 0.416233
LeftFoot  -19.5382 0.477153 5.01848
LeftToes  1.47335e-010 -1.29615e-010 3.08757e-011
84
root  48.0968 37.8155 -6.96371 -27.6116 -84.9109 28.6058
RightUpLeg  -22.7415 -2.70307 -0.798357
RightLeg  -3.48135 -2.71287 0.879182
RightFoot  -4.79306 -0.592112 9.68342
RightToes  -1.16417e-010 0 -3.6325e-017
Spine  -3.98998 -0.534178 1.17763
Spine1  9.23563 1.21828 -6.74279
HEad  -8.62633 -1.56363 -4.4178
LeftShoulder1  -0.524932 4.88877 -31.7543
LeftArm  14.3331 -12.8484 -48.8497
LeftForeArm  17.8506 -23.9178 -4.1765
LeftHand  -0.0450253 8.26658 0.023356
RightShoulder  -0.929357 -6.03113 30.1887
RightArm  21.7777 -4.56591 48.2316
RightForeArm  12.2434 16.2084 5.95339
RightHand  -0.0377506 4.0095 -0.744552
LeftUpLeg  4.95884 6.35699 -5.72347
LeftLeg  16.525 2.37612 0.24926
LeftFoot  -21.0608 0.503575 4.44146
LeftToes  1.47335e-010 -1.29615e-010 3.08757e-011
85
root  46.8947 37.6089 -6.81041 -24.3649 -84.8547 25.6703
RightUpLeg  -23.7313 -2.40962 -0.134155
RightLeg  -1.19773 -3.64618 1.19917
RightFoot  -3.51194 -0.53436 7.60969
RightToes  -1.16417e-010 0 -3.6325e-017
Spine  -4.21895 -0.52411 2.11754
Spine1  9.39166 1.09544 -6.56269
HEad  -9.70348 -1.08035 -4.56336
LeftShoulder1  -0.578948 5.02146 -32.0069
LeftArm  14.7455 -11.7432 -48.6707
LeftForeArm  17.4665 -23.9268 -4.20416
LeftHand  -0.0358721 8.26569 0.368253
RightShoulder  -0.926122 -6.02048 30.2147
RightArm  19.3492 -5.20315 47.9479
RightForeArm  16.9655 13.4173 6.70869
RightHand  0.0960776 4.11522 0.904452
LeftUpLeg  6.47455 6.61514 -5.34447
LeftLeg  16.9628 1.63574 0.299807
LeftFoot  -22.3044 0.453309 3.3223
LeftToes  1.47335e-010 -1.29615e-010 3.08757e-011
86
root  45.6573 37.5356 -6.66441 -13.8254 -84.4063 15.2972
RightUpLeg  -25.0811 -2.12198 0.949053
RightLeg  3.48829 -3.35357 1.10052
RightFoot  0.863307 -0.210338 2.21378
RightToes  -1.16417e-010 0 -3.6325e-017
Spine  -4.77589 -0.595348 3.15989
Spine1  10.3431 0.507522 -5.13864
HEad  -10.4732 -1.02205 -4.71232
LeftShoulder1  -0.589415 5.02842 -32.4934
LeftArm  15.4832 -10.4504 -48.5129
LeftForeArm  17.4083 -22.8561 -4.15943
LeftHand  -0.0364448 8.3335 0.334599
RightShoulder  -0.944154 -6.06063 30.342
RightArm  16.4236 -5.69178 47.2549
RightForeArm  20.6833 10.5776 7.14882
RightHand  0.112118 3.03839 1.31252
LeftUpLeg  8.34674 6.63251 -4.12369
LeftLeg  17.009 0.273877 0.139058
LeftFoot  -22.5846 0.322374 1.88809
LeftToes  1.47335e-010 -1.29615e-010 3.08757e-011
